<svg width="313" height="217" viewBox="0 0 313 217" fill="none" xmlns="http://www.w3.org/2000/svg">
<rect width="313" height="217" rx="6" fill="white"/>
<path d="M258.847 206.284H68.6309V207.53H258.847V206.284Z" fill="black"/>
<path d="M133.205 156.438C134.856 143.561 128.86 122.144 126.707 116.258C124.701 110.775 122.49 102.504 122.453 98.6454C122.447 98.3863 122.455 98.127 122.477 97.8687C122.463 97.1771 122.24 96.5064 121.838 95.9454L120.732 100.44L117.897 94.7367L118.916 92.3898C118.611 92.0782 118.298 91.7625 117.976 91.451C115.727 89.3186 113.374 87.3015 110.924 85.4072V84.5764L88.2302 89.9764L88.1064 90.0719C86.3709 91.5945 85.0202 93.511 84.1659 95.663C84.0009 96.0576 83.8441 96.4938 83.6955 96.9091L85.3996 98.4668L83.1674 98.7867C83.1674 98.8739 83.1261 98.9653 83.1096 99.0567L86.1011 105.944L83.547 111.086C83.6873 111.676 83.8482 112.282 84.0298 112.901C84.3722 114.069 84.7807 115.286 85.2676 116.553C87.0914 121.292 85.8824 125.849 82.7919 128.325C79.7014 130.8 74.7913 141.338 80.6381 148.155C86.4848 154.971 85.5606 163.333 83.1138 168.6C80.7206 173.713 76.5903 180.87 85.0861 190.075C85.3419 190.35 85.606 190.628 85.8824 190.906H99.115L99.1893 190.711C99.247 190.57 99.3296 190.354 99.4368 190.075C100.489 187.384 103.877 178.785 106.191 173.875C108.011 170.012 110.623 161.879 111.423 151.931C111.564 152.143 111.708 152.346 111.836 152.558C113.024 154.244 114.312 155.777 115.446 157.268C119.572 162.668 117.46 163.969 115.306 175.13C113.689 183.5 117.831 187.969 119.997 189.668C120.386 189.98 120.8 190.258 121.235 190.499L132.376 190.084C132.438 189.959 132.496 189.818 132.553 189.668C134.394 184.592 132.058 165.389 133.205 156.438Z" fill="black"/>
<path d="M87.8175 90.1385V82.2919H89.0554V88.5683L109.711 83.7416L107.788 78.1131L108.956 77.7102L111.328 84.6429L87.8175 90.1385Z" fill="black"/>
<path d="M118.293 47.6446C116.388 45.675 114.073 44.1547 111.515 43.193C108.956 42.2314 106.218 41.8521 103.497 42.0826L97.0517 42.6226L97.1549 43.8688L103.596 43.3288C106.136 43.1117 108.692 43.4644 111.08 44.3615C113.468 45.2587 115.628 46.6779 117.406 48.5169L144.923 76.8917L128.122 94.2007L118.586 80.7589L127.358 74.0297L110.883 58.7187L107.994 49.2937L106.814 49.6592L114.654 75.3506L83.7077 83.056C83.9429 76.954 84.7434 55.811 84.533 54.7435L83.3199 54.9969C83.3859 55.4123 83.3199 58.6107 83.192 62.9722L82.9939 62.8435L70.2193 82.5202L83.5344 89.644L77.3864 105.503L50.0672 90.7572L68.5936 54.486C69.6283 52.4491 71.1134 50.6784 72.9347 49.3102C74.7559 47.9419 76.8647 47.0126 79.0988 46.5937L86.9014 45.1149L86.6703 43.8688L78.8677 45.3642C76.4488 45.8195 74.1659 46.8273 72.1945 48.31C70.2231 49.7927 68.6158 51.7109 67.496 53.9169L48.4084 91.2764L78.0301 107.265L85.0859 89.0624L71.9936 82.084L83.1012 64.937C82.9196 70.7524 82.6555 78.0963 82.4286 83.8577L82.3956 84.6885L116.23 76.2686L111.609 61.1113L125.44 73.9633L116.882 80.5263L127.977 96.1613L146.656 76.8917L118.293 47.6446Z" fill="black"/>
<path d="M88.1722 99.339L84.1657 95.6629L82.9567 94.5455L82.1728 93.8269L79.433 101.237L79.7961 102.704L82.8659 115.236L84.0213 112.91L87.4625 105.985L84.7846 99.825L88.1722 99.339ZM86.1091 105.952L83.555 111.094L83.2786 111.655L80.7327 101.32L82.7009 95.9994L83.7036 96.9174L85.4077 98.475L83.1754 98.7949L83.0104 98.8198L83.1176 99.0649L86.1091 105.952Z" fill="black"/>
<path d="M120.286 83.3552L119.51 84.2151L115.974 88.1404L119.209 88.6098L117.971 91.451L116.527 94.7741L121.12 104.025L122.448 98.6496L124.326 91.0232L124.582 89.9764L120.286 83.3552ZM121.838 95.9455L120.732 100.44L117.897 94.7367L118.916 92.3898L120.979 87.6046L118.442 87.2432L120.113 85.3823L123.241 90.18L121.838 95.9455Z" fill="black"/>
<path d="M90.9161 191.592C87.3346 188.435 87.7761 176.862 90.817 172.484C93.4165 168.746 95.2898 154.473 89.2697 149.223C87.2809 147.491 86.204 145.385 86.072 142.992C85.7996 138.078 89.4265 133.023 92.5211 129.654C97.1466 124.607 93.6723 115.444 93.6352 115.352L94.7905 114.896C94.9473 115.311 98.5866 124.865 93.4289 130.501C91.0316 133.118 87.0457 138.211 87.3057 142.921C87.3728 143.962 87.6539 144.978 88.1312 145.904C88.6085 146.83 89.2716 147.646 90.0784 148.301C96.6803 154.066 94.6832 169.115 91.8321 173.224C89.1583 177.066 88.6549 187.966 91.733 190.67L90.9161 191.592Z" fill="white"/>
<path d="M99.7215 190.981L98.6074 190.433C107.272 172.571 110.223 157.248 111.184 147.549C112.422 135.137 110.957 126.48 109.327 122.842C105.568 114.426 108.349 103.763 108.469 103.319L109.666 103.643C109.637 103.746 106.88 114.33 110.458 122.335C113.981 130.21 115.991 157.36 99.7215 190.981Z" fill="white"/>
<path d="M96.3545 202.961L101.306 190.084H83.2457L84.071 206.284L84.1329 207.53H86.4022L86.8149 206.284L87.2605 204.946L89.4143 207.114H101.434V202.961H96.3545ZM86.72 202.637L85.5151 206.284H85.3088L84.5496 191.33H99.4987L94.5473 204.207H100.196V205.868H89.9301L86.72 202.637Z" fill="black"/>
<path d="M130.189 202.545L135.14 189.668H117.08L117.938 206.284L117.98 207.115H120.249L120.525 206.284L121.107 204.531L123.261 206.699H135.268V202.545H130.189ZM120.554 202.221L119.349 205.868H119.143L118.384 190.915H133.333L128.382 203.791H134.03V205.453H123.764L120.554 202.221Z" fill="black"/>
<path d="M90.1817 59.8033L89.1667 59.0888C90.0744 57.7845 90.4045 56.7087 90.1528 55.9859C90.0558 55.7651 89.9122 55.5682 89.7319 55.4089C89.5516 55.2496 89.339 55.1319 89.1089 55.0637L89.4101 53.855C89.8327 53.9739 90.2233 54.1874 90.5526 54.4794C90.882 54.7714 91.1416 55.1344 91.3123 55.5414C91.7331 56.6796 91.3535 58.1168 90.1817 59.8033Z" fill="#F4A019"/>
<path d="M75.8516 57.128C73.1118 56.21 72.1958 53.5266 72.1381 53.3895L73.3099 52.9741C73.3099 52.9741 74.0815 55.1881 76.1982 55.9067L75.8516 57.128Z" fill="#F4A019"/>
<path d="M68.3007 72.6966L67.3104 71.9489C67.8468 71.2261 72.6744 64.9414 76.3343 66.7816L75.7814 67.8948C73.4501 66.7151 69.5922 70.9645 68.3007 72.6966Z" fill="#F4A019"/>
<path d="M65.8209 65.4688L65.6641 64.2226C68.4781 63.8695 69.2538 60.1851 69.2621 60.1477L70.4752 60.3928C70.438 60.588 69.522 64.9994 65.8209 65.4688Z" fill="#F4A019"/>
<path d="M59.4131 90.0471C58.856 88.9256 56.8796 88.4105 56.1658 88.3108L56.3391 87.0647C56.4711 87.0855 59.5616 87.5507 60.5189 89.4822L59.4131 90.0471Z" fill="#F4A019"/>
<path d="M58.6166 82.0051L58.0142 80.9168C58.0472 80.896 61.41 78.9769 61.41 76.4763H62.6478C62.6478 79.7122 58.7816 81.9137 58.6166 82.0051Z" fill="#F4A019"/>
<path d="M71.3539 87.8998C70.3018 85.0794 64.6407 85.798 64.587 85.8229L64.422 84.5768C64.6943 84.5435 71.1146 83.746 72.5093 87.4844L71.3539 87.8998Z" fill="#F4A019"/>
<path d="M69.4561 99.1151V97.8689C71.2344 97.8689 75.8516 97.3788 75.8516 95.1689H77.0894C77.0894 99.0694 69.7696 99.1151 69.4561 99.1151Z" fill="#F4A019"/>
<path d="M64.7111 94.5044L63.5145 94.1762C63.6012 93.8564 64.4058 91.0484 65.9902 90.5292C66.3019 90.4334 66.6331 90.4214 66.9508 90.4943C67.2685 90.5671 67.5618 90.7224 67.8016 90.9446L67.0259 91.9165C66.6587 91.6216 66.4524 91.6881 66.374 91.713C65.6684 91.9373 64.9669 93.4784 64.7111 94.5044Z" fill="#F4A019"/>
<path d="M94.2211 76.954C91.5061 76.954 88.3083 75.0474 88.1185 74.9352L88.754 73.8635C90.3384 74.8231 94.7699 76.8667 96.181 74.8688L97.1878 75.5915C96.4823 76.5967 95.3929 76.954 94.2211 76.954Z" fill="#F4A019"/>
<path d="M104.669 63.8779L103.563 63.3213C103.627 63.1931 103.663 63.0527 103.668 62.9095C103.674 62.7662 103.649 62.6234 103.596 62.4905C103.084 61.0823 100.345 59.6368 99.3336 59.2007L99.8205 58.0542C100.233 58.237 103.947 59.8985 104.772 62.0626C104.881 62.3559 104.928 62.6687 104.91 62.9812C104.892 63.2937 104.81 63.5991 104.669 63.8779Z" fill="#F4A019"/>
<path d="M96.6475 69.0038C94.4812 69.0038 91.3536 66.8687 90.974 66.6029L91.6755 65.5811C93.0701 66.5489 95.7397 67.9903 96.9528 67.7286C97.0437 67.716 97.1305 67.6829 97.207 67.6318C97.2834 67.5808 97.3474 67.513 97.3943 67.4337L98.4588 68.0734C98.3244 68.2976 98.1448 68.4911 97.9316 68.6414C97.7184 68.7916 97.4764 68.8952 97.221 68.9457C97.0324 68.9851 96.8401 69.0046 96.6475 69.0038Z" fill="#F4A019"/>
<path d="M106.385 75.276L105.147 75.1846C105.176 74.7693 105.482 71.1637 107.21 69.7514C107.478 69.5311 107.788 69.3695 108.122 69.2772C108.455 69.1849 108.804 69.1639 109.146 69.2156L108.972 70.4617C108.798 70.4346 108.619 70.4454 108.449 70.4934C108.279 70.5414 108.121 70.6255 107.986 70.74C106.872 71.6331 106.451 74.3165 106.385 75.276Z" fill="#F4A019"/>
<path d="M102.222 52.4299C102.05 52.4307 101.879 52.3997 101.718 52.3385C100.447 51.865 99.8946 49.6385 99.7997 49.1982L101.005 48.9241C101.19 49.7548 101.694 51.001 102.147 51.1713C102.185 51.1713 102.284 51.2211 102.506 51.055L103.249 52.0519C102.958 52.289 102.596 52.4219 102.222 52.4299Z" fill="#F4A019"/>
<path d="M115.463 50.7229H114.225C114.225 49.1777 111.134 46.9263 109.187 45.8713L109.773 44.7747C110.354 45.0903 115.463 47.9399 115.463 50.7229Z" fill="#F4A019"/>
<path d="M120.15 63.5914C119.152 62.4159 118.694 61.2611 118.797 60.1604C118.869 59.3768 119.234 58.6504 119.82 58.1292L120.596 59.1011L120.208 58.6151L120.6 59.097C120.266 59.4108 120.061 59.8391 120.026 60.2974C119.969 61.0451 120.323 61.8801 121.091 62.7897L120.15 63.5914Z" fill="#F4A019"/>
<path d="M135.202 73.0165L134.096 72.4599C135.037 70.5658 131.093 68.3061 131.051 68.3061L131.646 67.2095C131.852 67.3216 136.692 70.0382 135.202 73.0165Z" fill="#F4A019"/>
<path d="M125.134 69.8553C123.191 67.8989 124.945 64.3058 125.019 64.1521L126.125 64.7087C125.712 65.5395 124.92 67.8781 126.009 68.9747L125.134 69.8553Z" fill="#F4A019"/>
<path d="M123.921 82.3419L123.096 81.4115C123.364 81.1705 125.77 79.0521 127.722 79.5339C128.132 79.6467 128.507 79.8643 128.81 80.1655C129.113 80.4667 129.333 80.8415 129.45 81.2536L128.295 81.669C127.998 80.8715 127.569 80.7676 127.429 80.7302C126.31 80.4685 124.478 81.8393 123.921 82.3419Z" fill="#F4A019"/>
<path d="M128.567 88.3898C128.221 88.3899 127.874 88.3621 127.532 88.3067L127.734 87.0605C127.911 87.0896 132.099 87.7252 132.801 83.8247L134.039 84.049C133.399 87.5092 130.589 88.3898 128.567 88.3898Z" fill="#F4A019"/>
<path d="M136.287 77.3657L135.483 76.4186C135.664 76.2607 137.311 74.89 138.879 75.2098C139.251 75.2918 139.598 75.462 139.891 75.7062C140.185 75.9503 140.416 76.2615 140.566 76.6138L139.46 77.1704C139.389 76.9913 139.277 76.8312 139.134 76.7029C138.991 76.5746 138.82 76.4815 138.635 76.431C137.806 76.269 136.659 77.05 136.287 77.3657Z" fill="#F4A019"/>
<path d="M107.363 37.7546C106.665 37.2476 105.919 36.812 105.135 36.4544C104.31 36.0723 104.31 36.0723 104.31 34.5229C104.26 33.1887 103.991 31.8719 103.513 30.6266C104.017 28.5497 104.376 23.0085 93.8539 23.0209C93.8539 23.0209 90.1157 22.0946 89.4431 25.0272C89.4431 25.0272 89.4431 25.0605 89.4431 25.0812C88.8077 28.0803 85.2922 27.1581 84.1534 28.7615C83.0145 30.3649 83.5344 31.2081 84.0213 33.1438C84.5082 35.0795 82.8907 34.4813 81.4961 35.5364C80.1015 36.5915 78.2901 38.0287 80.7039 39.2167L88.0361 40.7744L86.6868 43.4536C86.5194 43.7817 86.4206 44.1409 86.3966 44.5089C86.3726 44.877 86.4238 45.2461 86.5472 45.5934C86.6706 45.9407 86.8634 46.2589 87.1139 46.5281C87.3643 46.7974 87.6669 47.012 88.0031 47.1588L93.6848 49.6511C94.0247 49.7997 94.3911 49.8774 94.7617 49.8796C95.1259 49.8784 95.4861 49.8027 95.8203 49.6571C96.1545 49.5114 96.4558 49.2989 96.7059 49.0323C96.956 48.7658 97.1496 48.4509 97.275 48.1067C97.4005 47.7625 97.455 47.3962 97.4355 47.0301L97.1095 40.8284C97.4216 40.783 97.7258 40.6935 98.0131 40.5625C98.958 40.5916 100.901 40.6082 101.628 40.6082C105.589 40.6082 107.751 40.143 108.064 39.2167C108.184 38.8595 108.159 38.3236 107.363 37.7546ZM98.1328 39.009C97.8869 39.2313 97.5978 39.3997 97.2839 39.5034C96.9699 39.6071 96.6379 39.6438 96.309 39.6113C95.8182 39.5668 95.3376 39.4434 94.8855 39.2458C94.7978 38.8083 94.5685 38.4125 94.2336 38.1201C92.6409 36.6995 91.3164 35.5613 92.4346 34.498C93.5527 33.4346 93.3258 32.0555 92.5418 30.934C92.534 30.9235 92.5271 30.9124 92.5212 30.9007C92.4365 30.768 92.4002 30.6097 92.4186 30.453C92.4369 30.2963 92.5087 30.1509 92.6217 30.0415C92.7347 29.9322 92.8819 29.8657 93.0381 29.8535C93.1944 29.8412 93.35 29.884 93.4785 29.9744L95.1289 31.15L99.7048 31.2912C99.7048 31.3369 99.7048 31.3867 99.7048 31.4366C99.7025 31.4559 99.7025 31.4754 99.7048 31.4947V31.5944C99.7072 31.6151 99.7072 31.636 99.7048 31.6567C99.7585 32.529 99.7048 35.9684 98.8796 38.0869C98.6788 38.4307 98.4269 38.7417 98.1328 39.009ZM95.5828 48.3551C95.3808 48.4981 95.1455 48.5863 94.8998 48.611C94.654 48.6357 94.4061 48.5963 94.1799 48.4964L88.4982 46.0041C88.3175 45.9248 88.1548 45.8092 88.0202 45.6643C87.8855 45.5194 87.7818 45.3483 87.7153 45.1616C87.6488 44.9748 87.621 44.7763 87.6336 44.5783C87.6462 44.3803 87.6989 44.1869 87.7885 44.0102L89.2945 41.0444L94.2459 42.0953C94.5244 41.617 94.729 41.0987 94.8525 40.5584C95.1829 40.6734 95.5225 40.7595 95.8675 40.8159L96.1976 47.0841C96.2114 47.3311 96.1622 47.5777 96.0546 47.8001C95.9469 48.0226 95.7845 48.2137 95.5828 48.3551ZM99.709 39.3164C99.8239 39.1098 99.9258 38.8961 100.014 38.6767C101.281 36.5416 101.252 33.5592 100.972 31.3909V31.341L102.473 31.3867C102.838 32.3936 103.044 33.4518 103.084 34.5229C103.084 36.6621 103.352 36.9902 104.611 37.5842C105.327 37.9089 106.008 38.3055 106.645 38.7681L106.744 38.8429C105.832 39.2375 102.618 39.3995 99.6883 39.2998L99.709 39.3164Z" fill="black"/>
<path d="M192.416 40.9614C191.885 40.9614 191.367 41.1198 190.926 41.4165C190.485 41.7131 190.141 42.1348 189.938 42.6282C189.735 43.1215 189.682 43.6644 189.785 44.1882C189.889 44.7119 190.144 45.193 190.519 45.5706C190.894 45.9482 191.372 46.2053 191.892 46.3095C192.413 46.4137 192.952 46.3602 193.442 46.1559C193.932 45.9515 194.351 45.6055 194.646 45.1614C194.94 44.7174 195.098 44.1954 195.098 43.6614C195.097 42.9457 194.814 42.2596 194.311 41.7534C193.808 41.2473 193.127 40.9625 192.416 40.9614ZM192.416 45.1153C192.13 45.1153 191.851 45.03 191.613 44.8702C191.376 44.7105 191.191 44.4834 191.081 44.2178C190.972 43.9521 190.944 43.6598 190.999 43.3778C191.055 43.0958 191.192 42.8367 191.394 42.6334C191.596 42.4301 191.854 42.2916 192.134 42.2355C192.414 42.1794 192.704 42.2082 192.968 42.3182C193.232 42.4283 193.458 42.6146 193.616 42.8537C193.775 43.0928 193.86 43.3739 193.86 43.6614C193.86 44.047 193.708 44.4168 193.437 44.6894C193.166 44.9621 192.799 45.1153 192.416 45.1153Z" fill="black"/>
<path d="M157.343 46.7766C156.894 46.7766 156.456 46.9106 156.082 47.1616C155.709 47.4127 155.418 47.7695 155.247 48.1869C155.075 48.6044 155.03 49.0638 155.117 49.5069C155.205 49.9501 155.421 50.3572 155.739 50.6767C156.056 50.9962 156.46 51.2138 156.901 51.3019C157.341 51.3901 157.797 51.3448 158.212 51.1719C158.626 50.999 158.981 50.7062 159.23 50.3305C159.48 49.9548 159.613 49.5131 159.613 49.0612C159.612 48.4556 159.372 47.8752 158.947 47.447C158.521 47.0188 157.945 46.7777 157.343 46.7766ZM157.343 50.0997C157.139 50.0997 156.94 50.0388 156.77 49.9247C156.601 49.8106 156.468 49.6484 156.39 49.4586C156.312 49.2689 156.292 49.0601 156.332 48.8586C156.371 48.6572 156.47 48.4721 156.614 48.3269C156.758 48.1817 156.942 48.0828 157.142 48.0427C157.342 48.0026 157.549 48.0232 157.738 48.1018C157.926 48.1804 158.088 48.3135 158.201 48.4843C158.314 48.6551 158.375 48.8558 158.375 49.0612C158.375 49.3366 158.266 49.6008 158.073 49.7955C157.879 49.9903 157.617 50.0997 157.343 50.0997Z" fill="black"/>
<path d="M189.527 86.238C188.752 86.238 187.994 86.4695 187.35 86.9031C186.705 87.3367 186.202 87.953 185.906 88.6741C185.609 89.3951 185.531 90.1886 185.683 90.954C185.834 91.7195 186.207 92.4226 186.756 92.9745C187.304 93.5264 188.002 93.9022 188.763 94.0545C189.523 94.2068 190.311 94.1286 191.027 93.8299C191.744 93.5313 192.356 93.0255 192.787 92.3765C193.217 91.7276 193.447 90.9646 193.447 90.1842C193.446 89.1379 193.033 88.1349 192.298 87.3951C191.563 86.6552 190.567 86.2391 189.527 86.238ZM189.527 92.8842C188.997 92.8842 188.478 92.7258 188.037 92.4291C187.596 92.1325 187.252 91.7108 187.049 91.2174C186.846 90.7241 186.793 90.1812 186.897 89.6574C187 89.1337 187.256 88.6526 187.631 88.275C188.006 87.8974 188.484 87.6402 189.004 87.5361C189.524 87.4319 190.064 87.4854 190.554 87.6897C191.044 87.8941 191.463 88.2401 191.757 88.6841C192.052 89.1282 192.209 89.6502 192.209 90.1842C192.208 90.8999 191.925 91.586 191.423 92.0921C190.92 92.5983 190.238 92.8831 189.527 92.8842Z" fill="black"/>
<path d="M158.581 103.684C157.806 103.684 157.048 103.916 156.403 104.349C155.759 104.783 155.256 105.399 154.96 106.12C154.663 106.841 154.585 107.635 154.736 108.4C154.888 109.166 155.261 109.869 155.809 110.421C156.357 110.972 157.056 111.348 157.816 111.501C158.577 111.653 159.365 111.575 160.081 111.276C160.797 110.977 161.41 110.472 161.84 109.823C162.271 109.174 162.501 108.411 162.501 107.63C162.5 106.584 162.086 105.581 161.352 104.841C160.617 104.101 159.62 103.685 158.581 103.684ZM158.581 110.33C158.051 110.33 157.532 110.172 157.091 109.875C156.65 109.579 156.306 109.157 156.103 108.663C155.9 108.17 155.847 107.627 155.951 107.103C156.054 106.58 156.309 106.099 156.685 105.721C157.06 105.343 157.537 105.086 158.058 104.982C158.578 104.878 159.117 104.931 159.607 105.136C160.097 105.34 160.516 105.686 160.811 106.13C161.106 106.574 161.263 107.096 161.263 107.63C161.262 108.346 160.979 109.032 160.476 109.538C159.974 110.044 159.292 110.329 158.581 110.33Z" fill="black"/>
<path d="M208.714 28.4999H177.578V15H176.34V28.4999H148.059V116.146H173.501L159.328 206.284L159.233 206.899L160.471 207.094L160.599 206.284L174.764 116.146H179.072L179.006 206.284V206.699H180.243V206.284L180.297 116.146H185.43L199.871 206.284L200.053 207.422L201.291 207.223L201.142 206.284L186.701 116.146H208.714V28.4999ZM207.476 114.9H149.297V29.7461H207.476V114.9Z" fill="black"/>
<path d="M160.735 96.7599C161.086 96.951 161.453 97.1462 161.837 97.3414C164.525 98.6676 167.28 99.8543 170.089 100.897L171.513 101.437C172.822 101.927 174.181 102.427 175.589 102.937L176.773 103.352L178.704 104.05L179.08 104.187L180.318 104.636C181.473 105.051 182.635 105.466 183.804 105.882L185.141 106.376C187.761 107.344 190.402 108.353 193.022 109.417C196.055 110.663 198.089 111.244 199.376 111.244C200.173 111.244 200.684 111.016 200.965 110.567C202.285 108.436 196.426 102.571 182.727 90.0805L182.496 89.8687L181.023 88.527L180.326 87.8956L179.501 87.1438L179.34 86.9984L179.088 86.7699L178.263 86.0056C176.394 84.3109 174.52 82.6078 172.705 80.938C175.049 79.9203 177.297 78.9691 179.418 78.0718L179.517 78.0303C179.864 77.8808 180.206 77.7395 180.545 77.59C182.967 76.5681 185.174 75.6252 187.147 74.7446C187.851 74.4289 188.523 74.1202 189.164 73.8183C194.838 71.1432 197.866 69.0248 197.177 66.7069L195.989 67.0642C196.439 68.5762 193.336 70.4952 188.413 72.7965C187.833 73.0734 187.228 73.3503 186.598 73.6272C184.696 74.4788 182.587 75.3801 180.355 76.3272L179.757 76.5848L178.931 76.9254C177.075 77.7146 175.128 78.5454 173.093 79.4177L171.698 80.02L171.286 79.6544C167.91 76.5349 164.795 73.5691 162.332 71.0228C159.51 68.1151 158.367 64.8793 158.94 61.4316C159.881 55.7367 165.253 50.1913 170.749 45.8755C171.075 45.618 171.405 45.3646 171.731 45.1153C175.494 42.2819 179.472 39.7487 183.627 37.5388L183.066 36.4255C178.827 38.6578 174.771 41.2275 170.939 44.1101L169.957 44.8703C164.296 49.319 158.73 55.1178 157.719 61.2239C157.079 65.087 158.334 68.6759 161.432 71.8951C163.908 74.4538 167.04 77.4321 170.423 80.5641C167.861 81.6857 165.191 82.8903 162.435 84.1863C157.484 86.5124 155.251 88.6849 155.363 91.0193C155.487 93.0879 157.455 94.9364 160.735 96.7599ZM162.971 85.3493C165.056 84.3635 167.091 83.4317 169.074 82.5538L171.413 81.5278C173.555 83.4967 175.779 85.5155 177.986 87.5176L178.643 88.1158L179.08 88.5312L180.297 89.6361L181.052 90.3215L181.312 90.5582L182.781 91.8916C186.932 95.6758 190.93 99.3685 193.975 102.434C200.099 108.59 199.971 109.79 199.884 109.965C199.859 109.994 199.183 110.65 193.455 108.324C190.604 107.165 187.732 106.077 184.885 105.026L183.569 104.515L180.305 103.331L179.109 102.916H179.067L176.943 102.118L175.758 101.703C174.723 101.329 173.695 100.951 172.705 100.577C172.239 100.407 171.777 100.233 171.319 100.058C168.244 98.9311 165.231 97.6431 162.291 96.1991C161.911 96.0081 161.544 95.8128 161.197 95.6176C158.4 94.0641 156.658 92.5313 156.588 91.011C156.526 89.2747 158.668 87.3764 162.971 85.3493Z" fill="black"/>
<path d="M206.444 205.453C206.444 205.453 209.333 195.068 218.823 192.576C228.313 190.084 238.628 199.222 241.929 192.576C245.23 185.93 238.628 169.73 248.119 173.053C257.609 176.376 251.007 194.238 259.259 196.73C267.511 199.222 267.099 207.53 267.099 207.53H206.519L206.444 205.453Z" fill="black"/>
<path d="M52.3324 207.53C53.5703 207.945 79.2762 207.53 79.2762 207.53C79.2762 207.53 80.3903 200.053 72.9632 197.976C65.5361 195.899 66.774 196.314 66.3613 185.93C65.9487 175.545 63.8857 159.345 57.6964 167.653C51.5072 175.96 54.8081 185.93 49.0315 190.914C43.2549 195.899 40.7792 198.391 40.7792 207.53H52.3324Z" fill="black"/>
<path d="M272.166 101.304L247.628 118.966L230.079 94.259L254.621 76.5969L272.166 101.304Z" fill="#F4A019"/>
<path d="M189.123 73.8557L188.384 73.3572V72.8338C188.277 70.2256 187.671 67.6628 186.598 65.2863C187.943 64.0402 189.238 62.8356 190.468 61.7057C196.806 55.8904 200.631 52.3638 199.748 49.9213C199.224 48.4883 197.223 47.7738 193.266 47.6076C187.018 47.3465 180.761 47.7545 174.599 48.8247L171.711 45.1486L171.467 44.8412C171.273 44.5961 171.087 44.3635 170.918 44.1433C170.171 43.2046 169.602 42.4818 169.214 42.0166C168.529 41.1858 168.245 40.8369 167.749 41.2191C167.254 41.6012 167.448 41.921 168.385 43.2004L168.504 43.109C168.839 43.5244 169.301 44.0977 169.936 44.9035L170.753 45.9087C171.43 46.7686 172.255 47.8195 173.229 49.0989C167.452 50.345 162.947 52.3555 162.171 55.3296C161.395 58.3037 164.395 61.5604 171.083 64.9873C174.331 66.6488 177.355 68.2563 180.124 69.814C176.999 72.944 174.044 76.2399 171.269 79.6877C170.526 80.6223 169.788 81.5777 169.066 82.5538C166.65 85.8013 164.478 89.2252 162.567 92.7971C162.026 93.8148 161.577 94.7453 161.205 95.601C161.028 96.0164 160.871 96.3902 160.727 96.7599C158.957 101.383 159.774 103.406 160.95 104.237C161.602 104.685 162.38 104.911 163.169 104.881C165.418 104.881 168.434 103.518 171.492 101.421C171.904 101.142 172.317 100.847 172.73 100.544C174.026 99.5733 175.265 98.529 176.443 97.4162C176.949 96.9399 177.443 96.4525 177.925 95.9541C177.953 95.925 177.982 95.9001 178.007 95.871C178.366 95.4971 178.721 95.1191 179.072 94.7287C179.492 94.2607 179.905 93.7816 180.309 93.2915C180.722 92.7888 181.135 92.2738 181.527 91.7504C181.688 91.5427 181.844 91.335 181.993 91.119C182.141 90.903 182.373 90.5956 182.554 90.3298L182.715 90.1013C185.863 85.4781 188.079 80.211 188.355 74.8401C193.851 78.6035 197.33 82.1384 198.101 85.6401C198.609 87.9579 197.941 90.2633 196.038 92.7016L197.012 93.4659C199.141 90.7285 199.9 88.0659 199.294 85.3784C198.465 81.5361 194.9 77.8184 189.123 73.8557ZM187.097 72.5306C185.579 71.5586 183.935 70.5659 182.166 69.5523C183.338 68.3948 184.491 67.2871 185.624 66.2293C186.467 68.2301 186.966 70.3611 187.097 72.5306ZM193.216 48.8538C197.256 49.0241 198.357 49.7593 198.58 50.3492C199.178 52.0107 194.755 56.0773 189.63 60.7877C188.478 61.8428 187.276 62.9505 186.024 64.1108C185.394 62.917 184.661 61.7814 183.833 60.7171C180.532 56.4276 177.743 52.8276 175.465 49.9172C181.33 48.9484 187.279 48.592 193.216 48.8538ZM171.653 63.874C165.641 60.7919 162.777 57.9465 163.376 55.6453C164.007 53.2153 168.278 51.3461 174.083 50.183C176.229 52.9328 179.076 56.6048 182.851 61.4897C183.702 62.5871 184.447 63.7639 185.075 65.0039C183.763 66.25 182.414 67.5377 181.048 68.896C178.18 67.2885 175.057 65.6186 171.653 63.874ZM182.265 88.5436C182.108 88.7887 181.952 89.0296 181.787 89.2664C181.622 89.5032 181.432 89.7898 181.25 90.0473L181.069 90.2965C180.821 90.6413 180.569 90.9819 180.314 91.3142C179.901 91.8376 179.488 92.3361 179.076 92.8345C178.816 93.1502 178.548 93.4576 178.275 93.7608C177.896 94.1762 177.512 94.5916 177.12 95.007L176.773 95.3601C175.102 97.0741 173.283 98.6365 171.339 100.029C170.927 100.336 170.493 100.619 170.081 100.885C166.235 103.352 163.008 104.208 161.692 103.236C160.615 102.446 160.69 100.361 161.841 97.329C161.981 96.9551 162.138 96.5688 162.311 96.1701C162.691 95.3019 163.136 94.3673 163.669 93.3745C165.908 89.2047 168.501 85.237 171.418 81.5154C171.968 80.8147 172.518 80.1224 173.068 79.4384C175.742 76.1777 178.519 73.1828 181.25 70.4371C183.156 71.5295 184.931 72.5971 186.556 73.648L187.13 74.0218C187.13 74.2711 187.122 74.5203 187.105 74.7695C186.845 79.5921 184.984 84.315 182.265 88.5436Z" fill="#F4A019"/>
<path d="M258.785 116.038L249.934 102.471L237.502 110.692L230.195 115.523L243.064 135.253L262.8 122.206L258.785 116.038ZM231.907 115.88L238.22 111.705L249.563 104.199L257.762 116.765L261.062 121.841L243.394 133.521L231.907 115.88Z" fill="black"/>
</svg>
